# xmcd
#
# Track frame offsets: 
#        150
#        17024
#        33233
#        53442
#        68686
#        82765
#        98661
#        112641
#        125343
#        139921
#
# Disc length: 2079 seconds
#
# Revision: 0
# Processed by: cddbd v1.5.2PL0 Copyright (c) Steve Scherf et al.
# Submitted via: ExactAudioCopy v0.99pb5
#
DISCID=69081d0a
DTITLE=Various Artist - Pickin' On Brooks And Dunn
DYEAR=1900
DGENRE=Bluegrass
TTITLE0=My Next Broken Heart
TTITLE1=Honky Tonk Truth
TTITLE2=Neon Moon
TTITLE3=My Maria
TTITLE4=Hard Workin' Man
TTITLE5=She's Not The Cheatin' Kind
TTITLE6=Brand New Man
TTITLE7=Little Miss Honky Tonk
TTITLE8=Boot Scootin' Boogie
TTITLE9=Summer Girls
EXTD=
EXTT0=
EXTT1=
EXTT2=
EXTT3=
EXTT4=
EXTT5=
EXTT6=
EXTT7=
EXTT8=
EXTT9=
PLAYORDER=
